/* XPM */
static char *b2d3812c9e9448b8cfe7a6945868bdf35mMtrLEBsVHQKSFs[] = {
/* columns rows colors chars-per-pixel */
"64 64 10 1 ",
"  c black",
". c #00201F",
"X c #005855",
"o c #FF002A",
"O c #F83F6B",
"+ c #FCFF00",
"@ c #00FFF6",
"# c #64FFFA",
"$ c #EFE4B0",
"% c white",
/* pixels */
"$$$$$$$$$$$$$$$$$$$$$$$$$$$$$$$$$$$$$$$$$$$$$$$$$$$$$$$$$$$$$$$$",
"$$$$$$$$$$$$$$$$$$$$$$$$$$$$$$$$$$$$$$$$$$$$$$$$$$$$$$$$$$$$$$$$",
"$$$$$$$$$$$$$$$$$$$$$$$$$$$$$$$$$$$$$$$$$$$$$$$$$$$$$$$$$$$$$$$$",
"$$$$$$$$$$$$$$$$$$$$$$$$$$$$$$$$$$$$$$$$$$$$$$$$$$$$$$$$$$$$$$$$",
"$$$$$$$$$$$$$$$$$$$$$$$$$$$$$$$$$$$$$$$$$+$$$$$$$$$$$$$$$$$$$$$$",
"$$$$$$$$$$$$$$$$$$$$$$$$$$$$$$$$$$$$$$$$+++$$$$$$$$$$$$$$$$$$$$$",
"$$$$$$$$$$$$$$$$$$$$$$$$$$$$$$$$$$$$$$$+++++$$$$$$$$$$$$$$$$$$$$",
"$$$$$$$$$$$$$$$$$$$$$      $$$$$$$$$$$$$+++$$$$$$$$$$$$$$$$$$$$$",
"$$$$$$$$$$$$$$$$$$   %%%%%%  $$$$$$$$$$$$+$$$$$$$$$$$$$$$$$$$$$$",
"$$$$$$$$$$$$$$$$..#%%%%%%%%oo..$$$$$$$$$$$$$$$$$$$$$$$$$$$$$$$$$",
"$$$$$$$$$$$$$$..@@###%%%%%%ooo@..$$$$$$$$$$$$$$$$$$$$$$$$$$$$$$$",
"$$$OO$$$$$$$$ o@@@@@##%%%%%ooo@@# $$$$$$$$$$$$$$$$$$$$$$$$$$$$$$",
"$$$OO$$$$$$  oooo@@@@##%%%oooo@@#% $$$$$$$$$$$$$$$$$$$$$$$$$$$$$",
"$OOOO$$$$$ %oooooo@@@@#%%%oooo@@#%% $$$$$$$$$$$$$$$$$$$$$$$$$$$$",
"$OOOO$$$$ %%%oooooo@@@##%%ooo@@@#%%% $$$$$$$$$$$$$$$$$$$$$$$$$$$",
"$$$$$$$$$ %%%%%ooooo@@@#%%ooo@@@#%%%% $$$$$$$$$$$$$$$$$$$$$$$$$$",
"$$$$$$$$ %%%%%%%oooo@@@##%ooo@@##%%%% $$$$$$$$$$$$$$$$$$$$$$$$$$",
"$$$$$$$$ %%%%%%%%oooo@@@#ooo@@@#%%%%oo $$$$$$$$$$$$$$$$$$$$$$$$$",
"$$$$$$$ %%%%%%%%%%ooo@@@#ooo@@@#%%%%ooo $$$$$$$$$$$$$$$$$$$$$$$$",
"$$$$$$$ %%%%%%%%%%%ooo@@#ooo@@##%%%%ooo.$$$$$$$$$$$$$$$$$$$$$$$$",
"$$$$$$$ %##########ooo@@#oo@@@#%%%%%ooo@.$$$$$$$$$$OO$$$$$$$$$$$",
"$$$$$$$ ##@@@@@@@@##oo@@#oo@@@#%%%%ooo@@.$$$$$$$$$$OO$$$$$$$$$$$",
"$$$$$$$.#@@@@@@@@@@@oo@..oo@@##%%%%ooo@@@.$$$$$$$OOOO$$$$$$$$$$$",
"$$$$$$$ @@@@@@@@@@@@@X.$$.@@@#%%%%%ooo@@## $$$$$$OOOO$$$$$$$$$$$",
"$$$$$$$ @@@ooooooo@@.$$$$$..@#%%%%%ooo@@#% $$$$$$$$$$$$$$$$$$$$$",
"$$$$$$$ @oooooooooo@.$$$$$$$.#%%%%%ooo@@#%% $$$$$$$$$$$$$$$$$$$$",
"$$$$$$$.ooooooooooo#.$$$$$$$$ %%%%ooo@@@#%%% $$$$$$$$$$$$$$$$$$$",
"$$$$$$$ oooo%%%%%%% $$$$$$$$$ %%%%ooo@@@#%%% $$$$$$$$$$$$$$$$$$$",
"$$$$$$$ oooo%%%%%##.$$$$$$$$$$ %%%ooo@@##%%o $$$$$$$$$$$$$$$$$$$",
"$$$$$$$  oo%%%%%##@@.$$$$$$$$$$ %%ooo@@#%%%oo $$$$$$$$$$$$$$$$$$",
"$$$$$$$$ oo%%%%##@@@.$$$$$$$$$$ %%oo@@@#%%%ooo $$$$$$$$$$$$$$$$$",
"$$$$$$$$ oo%%%##@@@@o $$$$$$$$$$ ooo@@@#%%%ooo.$$$$$$$$$$$$$$$$$",
"$$$$$$$$$ %%%##@@@@oo $$$$$$$$$$$ oo@@##%%%ooo@.$$$$$$$$$$$$$$$$",
"$$$$$$$$$ %%##@@@@ooo $$$$$$$$$$$ oo@@#%%%%ooo@@.$$$$$$$$$$$$$$$",
"$$$$$$$$$$ %#@@@@oooo% $$$$$$$$$$$ o@@#%%%%ooo@@.$$$$$$$$$$$$$$$",
"$$$$$$$$$$ ##@@@oooo%% $$$$$$$$$$$$.@@#%%%%ooo@@# $$$$$$$$$$$$$$",
"$$$$$$$$$$$.@@@oooo%% $$$$$$$$$$$$$.@@#%%%%ooo@@#% $$$$$$$$$$$$$",
"$$$$$$$$$$$$.@@oooo%% $$$$$$$$$$$$$$.##%%%%ooo@@#% $$$$$$$$$$$$$",
"$$$$$$$$$$$$$.oooo   $$$$$$$$$$$$$$$$ %%%%ooo@@@#%% $$$$$$$$$$$$",
"$$$$$$$$$$$$$$    $$$$$$$$$$$$$$$$$$$ %%%%ooo@@@#%% $$$$$$$$$$$$",
"$$$$$$$$$$$$$$$$$$$$$$$$$$$$$$$$$$$$$$ %%%ooo@@##%%% $$$$$$$$$$$",
"$$$$$$$$$$$$$$$$$$$$$$$$$$$$$$$$$$$$$$ %%%ooo@@#%%%% $$$$$$$$$$$",
"$$$$$$$$$$$$$$$$$$$$$$$$$$$$$$$$$$$$$$$ %%ooo@@#%%%%o $$$$$$$$$$",
"$$$$$$$$$$$$$$$$$$$$$$$$$$$$$$$$$$$$$$$ %ooo@@@#%%%%o $$$$$$$$$$",
"$$$$$$$$$$$$$$$$$$$$$$$$$$$$$$$$$$$$$$$$ ooo@@@#%%%ooo.$$$$$$$$$",
"$$$$$$$$$$$$$$$$$$$$$$$$$$$$$$$$$$$$$$$$$ oo@@##%%%ooo@.$$$$$$$$",
"$$$$$$$$$$$$$$$$$$$$$$$$$$$$$$$$$$$$$$$$$ oo@@#%%%%ooo@.$$$$$$$$",
"$$$$$$$$$$$$+$$$$$$$$$$$$$$$$$$$$$$$$$$$$$ o@@#%%%%ooo@@.$$$$$$$",
"$$$$$$$$$$$+++$$$$$$$$$$$$$$$$$$$$$$$$$$$$ o@@#%%%%oo@@@.$$$$$$$",
"$$$$$$$$$$+++++$$$$$$$$$$$$$$$$$$$$$$$$$$$$.@@#%%%ooo@@@# $$$$$$",
"$$$$$$$$$$$+++$$$$$$$$$$$$$$$$$$$$$$$$$$$$$.@@#%%%ooo@@## $$$$$$",
"$$$$$$$$$$$$+$$$$$$$$$$$$$$$$$$$$$$OO$$$$$$$.##%%%ooo@@#%% $$$$$",
"$$$$$$$$$$$$$$$$$$$$$$$$$$$$$$$$$$$OO$$$$$$$ %%%%%oo@@@#%% $$$$$",
"$$$$$$$$$$$$$$$$$$$$$$$$$$$$$$$$$OOOO$$$$$$$$ %%%%oo@@@#%% $$$$$",
"$$$$$$$$$$$$$$$$$$$$$$$$$$$$$$$$$OOOO$$$$$$$$$ %%ooo@@##%% $$$$$",
"$$$$$$$$$$$$$$$$$$$$$$$$$$$$$$$$$$$$$$$$$$$$$$ %%ooo@@#%%% $$$$$",
"$$$$$$$$$$$$$$$$$$$$$$$$$$$$$$$$$$$$$$$$$$$$$$$ %oo@@@#%% $$$$$$",
"$$$$$$$$$$$$$$$$$$$$$$$$$$$$$$$$$$$$$$$$$$$$$$$ %oo@@@#%% $$$$$$",
"$$$$$$$$$$$$$$$$$$$$$$$$$$$$$$$$$$$$$$$$$$$$$$$$ oo@@##  $$$$$$$",
"$$$$$$$$$$$$$$$$$$$$$$$$$$$$$$$$$$$$$$$$$$$$$$$$$ .@@. $$$$$$$$$",
"$$$$$$$$$$$$$$$$$$$$$$$$$$$$$$$$$$$$$$$$$$$$$$$$$$$..$$$$$$$$$$$",
"$$$$$$$$$$$$$$$$$$$$$$$$$$$$$$$$$$$$$$$$$$$$$$$$$$$$$$$$$$$$$$$$",
"$$$$$$$$$$$$$$$$$$$$$$$$$$$$$$$$$$$$$$$$$$$$$$$$$$$$$$$$$$$$$$$$",
"$$$$$$$$$$$$$$$$$$$$$$$$$$$$$$$$$$$$$$$$$$$$$$$$$$$$$$$$$$$$$$$$"
};
