/* XPM */
static char *_de72c31ef8f4b40ce5ca29020f5415fEw8ezDuScS5U8vDQ[] = {
/* columns rows colors chars-per-pixel */
"64 64 62 1 ",
"  c None",
". c black",
"X c #020101",
"o c #030301",
"O c #0E0A05",
"+ c #0F0B06",
"@ c #1C150B",
"# c #1D150B",
"$ c #1E170C",
"% c #1F170C",
"& c #20180D",
"* c #231A0E",
"= c #251B0E",
"- c #261C0F",
"; c #271D0F",
": c #271D10",
"> c #281E10",
", c #291F10",
"< c #2A1F10",
"1 c #2B2011",
"2 c #2E2212",
"3 c #2F2313",
"4 c #312413",
"5 c #322513",
"6 c #322514",
"7 c #332614",
"8 c #342714",
"9 c #342715",
"0 c #352715",
"q c #352815",
"w c #362815",
"e c #3F2F19",
"r c #403019",
"t c #413019",
"y c #42311A",
"u c #43321A",
"i c #46341B",
"p c #46341C",
"a c #47351C",
"s c #48351C",
"d c #4B381E",
"f c #4C381E",
"g c #4D391E",
"h c #4F3A1F",
"j c #4F3B1F",
"k c #503C20",
"l c #523D20",
"z c #533D21",
"x c #533E21",
"c c #543E21",
"v c #553F21",
"b c #563F22",
"n c #564022",
"m c #574022",
"M c #574122",
"N c #584122",
"B c #584123",
"V c #594223",
"C c #FF00A2",
"Z c #67DC90",
"A c #EDEAE7",
"S c white",
/* pixels */
"                                                                ",
"                                                                ",
"                                                                ",
"                            ....Z...                            ",
"                         ..%0pZZZlpw%..                         ",
"                       ..4vVVVZVVVVVVv4..                       ",
"                      .:vVVVVZZVVVVVVVVm>.                      ",
"                     .4VVVVVVZVVVVVVVVVVV4.                     ",
"                    .wVVVVVVVZVVVZZZVVVVVVw.                    ",
"                   .4VVVVVVVVZVVZZVZZVVVVVV5.                   ",
"                  .>VVVVVVVVVZVVZVVVZVVVVVVV>.                  ",
"                  .lVVVVVVVVVZVVZVVVVZVVVVVVv.                  ",
"                 .5VVVVVVVVVVZVVZZVVZZVVVVVVV4.                 ",
"                 .vVVVVVVVVVVZZVVVVZZVVVVVVVVv.                 ",
"                 %VVVVVVVVVVVVZZZZZZVVVVVVVVVV%                 ",
"                .wVVVVVVVVVVVVVVVVVVVVVVVVVVVVw.                ",
"                .iVVZZZZZZZZZVVVVVVZZZZZZZZZVVp.                ",
"                .lVVVS....ZZSVVVVVVS....ZZSVVVl.                ",
"                .mVVVS....ZZSVVVVVVS....ZZSVVVV.                ",
"                .mVVVS......SVVVVVVS......SVVVV.                ",
"                .lVVVS......SVVVVVVS......SVVVl.                ",
"                .pVVVSS....SSVVVVVVSS....SSVVVp.                ",
"                .wVVVVSS..SSVVVVVVVVSS..SSVVVVw.                ",
"                 %VVVVVSSSSVVVVVVVVVVSSSSVVVVV&                 ",
"                 .mVVVVVVVVVVVVVVVVVVVVVVVVVVB.                 ",
"                 .5VVVVVVVVVVVVVVVVVVVVVVVVVV4.                 ",
"                  .vVVVVVVVVAAAAAAAVVVVVVVVVB.                  ",
"                  .>VVVVVVVVVCCCCCVVVVVVVVVV>.                  ",
"                   .5VVVVVVVVVCCCVVVVVVVVVV4.                   ",
"                    .0VVVVVVVVVCVVVVVVVVVVw.                    ",
"                     .5VVVVVVVVVVVVVVVVVV4.                     ",
"                      .0VVVVVVVVVVVVVVVV0.                      ",
"                       .lVVVVVVVVVVVVVVv.                       ",
"                      .0VVVVVVVVVVVVVVVV0.                      ",
"                     .>VVVVVVVVVVVVVVVVVV>.                     ",
"                     @VVVVVVVVVZZVVVVVVVVV@                     ",
"                    .uVVVVVVVVVZZVVVVVVVVVu.                    ",
"                    -VVVVVVVVVVVVVVVVVVVVVV:                    ",
"                   .hVVVVVVVVVVVVVVVVVVVVVVs.                   ",
"                   =VVVVlVVVVVVVVVVVVVVlVVVV=                   ",
"                  .sVVVh.hVVVVVZZVVVVVk.hVVVs.                  ",
"                  +VVVV= :VVVVVZZVVVVV> >VVVV+                  ",
"                  1VVVr. .VVVVVVVVVVVVo .uVVV>                  ",
"                 .umVV@  .VVVVVVVVVVVV.  %VVVe.                 ",
"                 .lVV>.  .VVVVVVVVVVVV.  .>VVj.                 ",
"                 .VV5.   .VVVVVZZVVVVV.   .5VV.                 ",
"                 .d2.    .VVVVVZZVVVVV.    .2h.                 ",
"                  ..     .VVVVVVVVVVVV.     ..                  ",
"                         .VVVVVVVVVVVV.                         ",
"                         .VVVVVVVVVVVV.                         ",
"                         .VVVVVVVVVVVV.                         ",
"                         .VVVV=..=VVVV.                         ",
"                         .VVVV.  .VVVV.                         ",
"                         .VVVV.  .VVVV.                         ",
"                         .VVVV.  .VVVV.                         ",
"                         .VVVV.  .VVVV.                         ",
"                         .VVVV.  .VVVV.                         ",
"                         .VVVV.  .VVVV.                         ",
"                         .VVVV.  .VVVV.                         ",
"                         .lVVv.  .lVVl.                         ",
"                         .>vv>.  .>vv>.                         ",
"                          ....    ....                          ",
"                                                                ",
"                                                                "
};
