/* XPM */
static char *_9a8906a783f4a12a8676ec5281e96c2WApBfcExozhkkmMR[] = {
/* columns rows colors chars-per-pixel */
"64 64 98 2 ",
"   c black",
".  c #030301",
"X  c gray1",
"o  c #060606",
"O  c #070707",
"+  c #0E0A05",
"@  c #0F0B06",
"#  c #090909",
"$  c #0B0B0B",
"%  c #0C0C0C",
"&  c gray6",
"*  c #1F170C",
"=  c #101010",
"-  c #111111",
";  c #131313",
":  c gray8",
">  c #161616",
",  c gray9",
"<  c #1B1B1B",
"1  c gray11",
"2  c #20180D",
"3  c #251B0E",
"4  c #271D0F",
"5  c #271D10",
"6  c #281E10",
"7  c #2A1F10",
"8  c #2E2212",
"9  c #312413",
"0  c #322513",
"q  c #332614",
"w  c #342715",
"e  c #362815",
"r  c #3F2F19",
"t  c #202020",
"y  c gray13",
"u  c #232323",
"i  c gray14",
"p  c #2A2A2A",
"a  c #2D2D2D",
"s  c gray18",
"d  c gray19",
"f  c gray20",
"g  c #373737",
"h  c #403019",
"j  c #43321A",
"k  c #46341B",
"l  c #46341C",
"z  c #48351C",
"x  c #4C381E",
"c  c #4F3B1F",
"v  c #503C20",
"b  c #523D20",
"n  c #543E21",
"m  c #574022",
"M  c #584123",
"N  c #594223",
"B  c gray28",
"V  c gray29",
"C  c #4C4C4C",
"Z  c gray33",
"A  c #5A5A5A",
"S  c gray37",
"D  c #626262",
"F  c gray39",
"G  c #646464",
"H  c #676767",
"J  c #686868",
"K  c #6D6D6D",
"L  c #717171",
"P  c gray46",
"I  c #777777",
"U  c #FF00A2",
"Y  c #67DC90",
"T  c #848484",
"R  c gray53",
"E  c #8B8B8B",
"W  c #8E8E8E",
"Q  c gray56",
"!  c gray57",
"~  c #9A9A9A",
"^  c gray64",
"/  c #A7A7A7",
"(  c gray66",
")  c #ACACAC",
"_  c #AFAFAF",
"`  c #EFE4B0",
"'  c #CDCDCD",
"]  c gray81",
"[  c #D2D2D2",
"{  c LightGray",
"}  c #D7D7D7",
"|  c #D8D8D8",
" . c #DADADA",
".. c gray86",
"X. c gainsboro",
"o. c #E1E1E1",
"O. c #EDEAE7",
"+. c white",
/* pixels */
"` ` ` ` ` ` ` ` ` ` ` ` ` ` ` ` ` ` ` ` ` ` ` ` ` ` ` ` ` ` ` ` ` ` ` ` ` ` ` ` ` ` ` ` ` ` ` ` ` ` ` ` ` ` ` ` ` ` ` ` ` ` ` ` ",
"` ` ` ` ` ` ` ` ` ` ` ` ` ` ` ` ` ` ` ` ` ` ` ` ` ` ` ` ` ` ` ` ` ` ` ` ` ` ` ` ` ` ` ` ` ` ` ` ` ` ` ` ` ` ` ` ` ` ` ` ` ` ` ` ",
"` ` ` ` ` ` ` ` ` ` ` ` ` ` ` ` ` ` ` ` ` ` ` ` ` ` ` ` ` ` ` ` ` ` ` ` ` ` ` ` ` ` ` ` ` ` ` ` ` ` ` ` ` ` ` ` ` ` ` ` ` ` ` ` ",
"` ` ` ` ` ` ` ` ` ` ` ` ` ` ` ` ` ` ` ` ` ` ` ` ` ` ` ( J g : o Y : g J ( ` ` ` ` ` ` ` ` ` ` ` ` ` ` ` ` ` ` ` ` ` ` ` ` ` ` ` ",
"` ` ` ` ` ` ` ` ` ` ` ` ` ` ` ` ` ` ` ` ` ` ` ` ` G % * w l Y Y Y b l e * # G X.` ` ` ` ` ` ` ` ` ` ` ` ` ` ` ` ` ` ` ` ` ` ` ` ",
"` ` ` ` ` ` ` ` ` ` ` ` ` ` ` ` ` ` ` ` ` ` ` P o q n N N N Y N N N N N N n 0 o L ` ` ` ` ` ` ` ` ` ` ` ` ` ` ` ` ` ` ` ` ` ` ` ",
"` ` ` ` ` ` ` ` ` ` ` ` ` ` ` ` ` ` ` ` ` X.s 5 b N N N N Y Y N N N N N N N N b 6 s  .` ` ` ` ` ` ` ` ` ` ` ` ` ` ` ` ` ` ` ` ` ",
"` ` ` ` ` ` ` ` ` ` ` ` ` ` ` ` ` ` ` ` ' < w N N N N N N Y N N N N N N N N N N N w : ' ` ` ` ` ` ` ` ` ` ` ` ` ` ` ` ` ` ` ` ` ",
"` ` ` ` ` ` ` ` ` ` ` ` ` ` ` ` ` ` `  .: e N N N N N N N Y N N N Y Y Y N N N N N N e :  .` ` ` ` ` ` ` ` ` ` ` ` ` ` ` ` ` ` ` ",
"` ` ` ` ` ` ` ` ` ` ` ` ` ` ` ` ` ` ` d w N N N N N N N N Y N N Y Y N Y Y N N N N N N w s ` ` ` ` ` ` ` ` ` ` ` ` ` ` ` ` ` ` ` ",
"` ` ` ` ` ` ` ` ` ` ` ` ` ` ` ` ` ` P 6 N N N N N N N N N Y N N Y N N N Y N N N N N N N 6 P ` ` ` ` ` ` ` ` ` ` ` ` ` ` ` ` ` ` ",
"` ` ` ` ` ` ` ` ` ` ` ` ` ` ` ` ` X.o n N N N N N N N N N Y N N Y N N N N Y N N N N N N n o ` ` ` ` ` ` ` ` ` ` ` ` ` ` ` ` ` ` ",
"` ` ` ` ` ` ` ` ` ` ` ` ` ` ` ` ` G q N N N N N N N N N N Y N N Y Y N N Y Y N N N N N N N q D ` ` ` ` ` ` ` ` ` ` ` ` ` ` ` ` ` ",
"` ` ` ` ` ` ` ` ` ` ` ` ` ` ` ` ` % b N N N N N N N N N N Y Y N N N N Y Y N N N N N N N N n # ` ` ` ` ` ` ` ` ` ` ` ` ` ` ` ` ` ",
"` ` ` ` ` ` ` ` ` ` ` ` ` ` ` ` ( * N N N N N N N N N N N N Y Y Y Y Y Y N N N N N N N N N N * ` ` ` ` ` ` ` ` ` ` ` ` ` ` ` ` ` ",
"` ` ` ` ` ` ` ` ` ` ` ` ` ` ` ` G e N N N N N N N N N N N N N N N N N N N N N N N N N N N N w F ` ` ` ` ` ` ` ` ` ` ` ` ` ` ` ` ",
"` ` ` ` ` ` ` ` ` ` ` ` ` ` ` ` g k N N Y Y Y Y Y Y Y Y Y N N N N N N Y Y Y Y Y Y Y Y Y N N l f ` ` ` ` ` ` ` ` ` ` ` ` ` ` ` ` ",
"` ` ` ` ` ` ` ` ` ` ` ` ` ` ` ` : b N N N +.        Y Y +.N N N N N N +.        Y Y +.N N N b : ` ` ` ` ` ` ` ` ` ` ` ` ` ` ` ` ",
"` ` ` ` ` ` ` ` ` ` ` ` ` ` ` ` o m N N N +.        Y Y +.N N N N N N +.        Y Y +.N N N N   ` ` ` ` ` ` ` ` ` ` ` ` ` ` ` ` ",
"` ` ` ` ` ` ` ` ` ` ` ` ` ` ` ` o m N N N +.            +.N N N N N N +.            +.N N N N . ` ` ` ` ` ` ` ` ` ` ` ` ` ` ` ` ",
"` ` ` ` ` ` ` ` ` ` ` ` ` ` ` ` : b N N N +.            +.N N N N N N +.            +.N N N n : ` ` ` ` ` ` ` ` ` ` ` ` ` ` ` ` ",
"` ` ` ` ` ` ` ` ` ` ` ` ` ` ` ` g l N N N +.+.        +.+.N N N N N N +.+.        +.+.N N N z f ` ` ` ` ` ` ` ` ` ` ` ` ` ` ` ` ",
"` ` ` ` ` ` ` ` ` ` ` ` ` ` ` ` G e N N N N +.+.    +.+.N N N N N N N N +.+.    +.+.N N N N w F ` ` ` ` ` ` ` ` ` ` ` ` ` ` ` ` ",
"` ` ` ` ` ` ` ` ` ` ` ` ` ` ` ` / * N N N N N +.+.+.+.N N N N N N N N N N +.+.+.+.N N N N N 2 ^ ` ` ` ` ` ` ` ` ` ` ` ` ` ` ` ` ",
"` ` ` ` ` ` ` ` ` ` ` ` ` ` ` ` ` # m N N N N N N N N N N N N N N N N N N N N N N N N N N n o ` ` ` ` ` ` ` ` ` ` ` ` ` ` ` ` ` ",
"` ` ` ` ` ` ` ` ` ` ` ` ` ` ` ` ` D 0 N N N N N N N N N N N N N N N N N N N N N N N N N N w S ` ` ` ` ` ` ` ` ` ` ` ` ` ` ` ` ` ",
"` ` ` ` ` ` ` ` ` ` ` ` ` ` ` ` `  .o n N N N N N N N N O.O.O.O.O.O.O.N N N N N N N N N n O | ` ` ` ` ` ` ` ` ` ` ` ` ` ` ` ` ` ",
"` ` ` ` ` ` ` ` ` ` ` ` ` ` ` ` ` ` P 4 N N N N N N N N N U U U U U N N N N N N N N N N 6 L ` ` ` ` ` ` ` ` ` ` ` ` ` ` ` ` ` ` ",
"` ` ` ` ` ` ` ` ` ` ` ` ` ` ` ` ` ` ` s 0 N N N N N N N N N U U U N N N N N N N N N N q p ` ` ` ` ` ` ` ` ` ` ` ` ` ` ` ` ` ` ` ",
"` ` ` ` ` ` ` ` ` ` ` ` ` ` ` ` ` ` `  .: e N N N N N N N N N U N N N N N N N N N N w :  .` ` ` ` ` ` ` ` ` ` ` ` ` ` ` ` ` ` ` ",
"` ` ` ` ` ` ` ` ` ` ` ` ` ` ` ` ` ` ` ` ' : q N N N N N N N N N N N N N N N N N N q & ' ` ` ` ` ` ` ` ` ` ` ` ` ` ` ` ` ` ` ` ` ",
"` ` ` ` ` ` ` ` ` ` ` ` ` ` ` ` ` ` ` ` `  .s 0 N N N N N N N N N N N N N N N N w p | ` ` ` ` ` ` ` ` ` ` ` ` ` ` ` ` ` ` ` ` ` ",
"` ` ` ` ` ` ` ` ` ` ` ` ` ` ` ` ` ` ` ` ` ` } % b N N N N N N N N N N N N N N n $ [ ` ` ` ` ` ` ` ` ` ` ` ` ` ` ` ` ` ` ` ` ` ` ",
"` ` ` ` ` ` ` ` ` ` ` ` ` ` ` ` ` ` ` ` ` ` 5 e N N N N N N N N N N N N N N N N e u ` ` ` ` ` ` ` ` ` ` ` ` ` ` ` ` ` ` ` ` ` ` ",
"` ` ` ` ` ` ` ` ` ` ` ` ` ` ` ` ` ` ` ` ` A 6 N N N N N N N N N N N N N N N N N N 5 S ` ` ` ` ` ` ` ` ` ` ` ` ` ` ` ` ` ` ` ` ` ",
"` ` ` ` ` ` ` ` ` ` ` ` ` ` ` ` ` ` ` ` ) : N N N N N N N N N Y Y N N N N N N N N m * _ ` ` ` ` ` ` ` ` ` ` ` ` ` ` ` ` ` ` ` ` ",
"` ` ` ` ` ` ` ` ` ` ` ` ` ` ` ` ` ` ` ` t j N N N N N N N N N Y Y N N N N N N N N N j u ` ` ` ` ` ` ` ` ` ` ` ` ` ` ` ` ` ` ` ` ",
"` ` ` ` ` ` ` ` ` ` ` ` ` ` ` ` ` ` ` W 3 N N N N N N N N N N N N N N N N N N N N N m 5 W ` ` ` ` ` ` ` ` ` ` ` ` ` ` ` ` ` ` ` ",
"` ` ` ` ` ` ` ` ` ` ` ` ` ` ` ` ` ` ` ; c N N N N N N N N N N N N N N N N N N N N N N x - ` ` ` ` ` ` ` ` ` ` ` ` ` ` ` ` ` ` ` ",
"` ` ` ` ` ` ` ` ` ` ` ` ` ` ` ` ` ` ~ 5 N N N N b N N N N N N N N N N N N N N n N N N N 4 ~ ` ` ` ` ` ` ` ` ` ` ` ` ` ` ` ` ` ` ",
"` ` ` ` ` ` ` ` ` ` ` ` ` ` ` ` ` ` s l N N N x : c N N N N N Y Y N N N N N b - c N N N k d ` ` ` ` ` ` ` ` ` ` ` ` ` ` ` ` ` ` ",
"` ` ` ` ` ` ` ` ` ` ` ` ` ` ` ` ` { + N N N N 5 Q 5 N N N N N Y Y N N N N N 6 R 6 N N N m +  .` ` ` ` ` ` ` ` ` ` ` ` ` ` ` ` ` ",
"` ` ` ` ` ` ` ` ` ` ` ` ` ` ` ` ` T 5 N N N j u `   N N N N N N N N N N N N   ` < j N N N 8 R ` ` ` ` ` ` ` ` ` ` ` ` ` ` ` ` ` ",
"` ` ` ` ` ` ` ` ` ` ` ` ` ` ` ` ` B j N N M * _ `   N N N N N N N N N N N N   ` / * N N N r V ` ` ` ` ` ` ` ` ` ` ` ` ` ` ` ` ` ",
"` ` ` ` ` ` ` ` ` ` ` ` ` ` ` ` ` < b N N 5 S ` `   N N N N N N N N N N N N   ` ` A 5 N N c 1 ` ` ` ` ` ` ` ` ` ` ` ` ` ` ` ` ` ",
"` ` ` ` ` ` ` ` ` ` ` ` ` ` ` ` ` X M N q u ` ` `   N N N N N Y Y N N N N N   ` ` ` t 0 N N o ` ` ` ` ` ` ` ` ` ` ` ` ` ` ` ` ` ",
"` ` ` ` ` ` ` ` ` ` ` ` ` ` ` ` ` : l q ,  .` ` `   N N N N N Y Y N N N N N   ` ` ` ` t 8 x : ` ` ` ` ` ` ` ` ` ` ` ` ` ` ` ` ` ",
"` ` ` ` ` ` ` ` ` ` ` ` ` ` ` ` ` ! = Z o.` ` ` `   N N N N N N N N N N N N   ` ` ` ` ` C # W ` ` ` ` ` ` ` ` ` ` ` ` ` ` ` ` ` ",
"` ` ` ` ` ` ` ` ` ` ` ` ` ` ` ` ` ` ` ` ` ` ` ` `   N N N N N N N N N N N N   ` ` ` ` ` ` ` ` ` ` ` ` ` ` ` ` ` ` ` ` ` ` ` ` ` ",
"` ` ` ` ` ` ` ` ` ` ` ` ` ` ` ` ` ` ` ` ` ` ` ` `   N N N N N N N N N N N N   ` ` ` ` ` ` ` ` ` ` ` ` ` ` ` ` ` ` ` ` ` ` ` ` ` ",
"` ` ` ` ` ` ` ` ` ` ` ` ` ` ` ` ` ` ` ` ` ` ` ` `   N N N N N N N N N N N N   ` ` ` ` ` ` ` ` ` ` ` ` ` ` ` ` ` ` ` ` ` ` ` ` ` ",
"` ` ` ` ` ` ` ` ` ` ` ` ` ` ` ` ` ` ` ` ` ` ` ` `   N N N N 3     4 N N N N   ` ` ` ` ` ` ` ` ` ` ` ` ` ` ` ` ` ` ` ` ` ` ` ` ` ",
"` ` ` ` ` ` ` ` ` ` ` ` ` ` ` ` ` ` ` ` ` ` ` ` `   N N N N   ` `   N N N N   ` ` ` ` ` ` ` ` ` ` ` ` ` ` ` ` ` ` ` ` ` ` ` ` ` ",
"` ` ` ` ` ` ` ` ` ` ` ` ` ` ` ` ` ` ` ` ` ` ` ` `   N N N N   ` `   N N N N   ` ` ` ` ` ` ` ` ` ` ` ` ` ` ` ` ` ` ` ` ` ` ` ` ` ",
"` ` ` ` ` ` ` ` ` ` ` ` ` ` ` ` ` ` ` ` ` ` ` ` `   N N N N   ` `   N N N N   ` ` ` ` ` ` ` ` ` ` ` ` ` ` ` ` ` ` ` ` ` ` ` ` ` ",
"` ` ` ` ` ` ` ` ` ` ` ` ` ` ` ` ` ` ` ` ` ` ` ` `   N N N N   ` `   N N N N   ` ` ` ` ` ` ` ` ` ` ` ` ` ` ` ` ` ` ` ` ` ` ` ` ` ",
"` ` ` ` ` ` ` ` ` ` ` ` ` ` ` ` ` ` ` ` ` ` ` ` `   N N N N   ` `   N N N N   ` ` ` ` ` ` ` ` ` ` ` ` ` ` ` ` ` ` ` ` ` ` ` ` ` ",
"` ` ` ` ` ` ` ` ` ` ` ` ` ` ` ` ` ` ` ` ` ` ` ` `   N N N N   ` `   N N N N   ` ` ` ` ` ` ` ` ` ` ` ` ` ` ` ` ` ` ` ` ` ` ` ` ` ",
"` ` ` ` ` ` ` ` ` ` ` ` ` ` ` ` ` ` ` ` ` ` ` ` `   N N N N   ` `   N N N N   ` ` ` ` ` ` ` ` ` ` ` ` ` ` ` ` ` ` ` ` ` ` ` ` ` ",
"` ` ` ` ` ` ` ` ` ` ` ` ` ` ` ` ` ` ` ` ` ` ` ` ` ; b N N n & ` ` - b N N n - ` ` ` ` ` ` ` ` ` ` ` ` ` ` ` ` ` ` ` ` ` ` ` ` ` ",
"` ` ` ` ` ` ` ` ` ` ` ` ` ` ` ` ` ` ` ` ` ` ` ` ` K 6 m m 5 J ` ` K 6 N n 6 J ` ` ` ` ` ` ` ` ` ` ` ` ` ` ` ` ` ` ` ` ` ` ` ` ` ",
"` ` ` ` ` ` ` ` ` ` ` ` ` ` ` ` ` ` ` ` ` ` ` ` ` ` J % % G ` ` ` ` K % % K ` ` ` ` ` ` ` ` ` ` ` ` ` ` ` ` ` ` ` ` ` ` ` ` ` ` ",
"` ` ` ` ` ` ` ` ` ` ` ` ` ` ` ` ` ` ` ` ` ` ` ` ` ` ` ` ` ` ` ` ` ` ` ` ` ` ` ` ` ` ` ` ` ` ` ` ` ` ` ` ` ` ` ` ` ` ` ` ` ` ` ` ",
"` ` ` ` ` ` ` ` ` ` ` ` ` ` ` ` ` ` ` ` ` ` ` ` ` ` ` ` ` ` ` ` ` ` ` ` ` ` ` ` ` ` ` ` ` ` ` ` ` ` ` ` ` ` ` ` ` ` ` ` ` ` ` ` "
};
