/* XPM */
static char *_2e042b40ef34329e5b7386752a3fd480vFpz1RDDrfu3Sih[] = {
/* columns rows colors chars-per-pixel */
"64 64 105 2 ",
"   c #F53319",
".  c #F53419",
"X  c #F53719",
"o  c #F53819",
"O  c #F53A19",
"+  c #F53C19",
"@  c #F53D19",
"#  c #F54119",
"$  c #F54519",
"%  c #F64619",
"&  c #F64B19",
"*  c #F64D19",
"=  c #F65319",
"-  c #F65519",
";  c #F65918",
":  c #F65A18",
">  c #F65E18",
",  c #F65F18",
"<  c #F66218",
"1  c #F66318",
"2  c #F66518",
"3  c #F66718",
"4  c #F66918",
"5  c #F76A18",
"6  c #F76D18",
"7  c #F76E18",
"8  c #F77118",
"9  c #F77318",
"0  c #F77418",
"q  c #F77518",
"w  c #F77B18",
"e  c #F77C18",
"r  c #F77D18",
"t  c #F54024",
"y  c #F4492B",
"u  c #F64D37",
"i  c #F35F3F",
"p  c #F36847",
"a  c #F36B48",
"s  c #F36D4B",
"d  c #F37B57",
"f  c #F78118",
"g  c #F78418",
"h  c #F78518",
"j  c #F78718",
"k  c #F78818",
"l  c #F78B18",
"z  c #F78D18",
"x  c #F79018",
"c  c #F79118",
"v  c #F79518",
"b  c #F79718",
"n  c #F79E18",
"m  c #F79F18",
"M  c #F7A218",
"N  c #F7A318",
"B  c #F7A718",
"V  c #F7AA18",
"C  c #F7AB18",
"Z  c #F7AD18",
"A  c #F7AE18",
"S  c #F7B418",
"D  c #F7B818",
"F  c #F7BA18",
"G  c #F7BD18",
"H  c #F7BE18",
"J  c #F7C018",
"K  c #F7C318",
"L  c #F7C518",
"P  c #F7CB18",
"I  c #F7CD18",
"U  c #F7D018",
"Y  c #F7D418",
"T  c #F7D618",
"R  c #F7DA18",
"E  c #F2986F",
"W  c #F8E045",
"Q  c #F8E147",
"!  c #F8E14C",
"~  c #F8E24F",
"^  c #F8E462",
"/  c #F8E567",
"(  c #F8E66F",
")  c #F8E775",
"_  c #F8E878",
"`  c #F8E87D",
"'  c #F0CF9E",
"]  c #F8E980",
"[  c #F8EA87",
"{  c #F9EC99",
"}  c #F9ED9B",
"|  c #F9ED9D",
" . c #EFD9A7",
".. c #EFDCA9",
"X. c #EFDEAB",
"o. c #F0D1A0",
"O. c #F0D5A3",
"+. c #EFE3AF",
"@. c #F9EEA4",
"#. c #EFE4B0",
"$. c #F9F0B1",
"%. c #F9F0B5",
"&. c #F9F1B9",
"*. c #F9F1BD",
"=. c #F9F2C2",
/* pixels */
"#.#.#.#.#.#.#.#.#.#.#.#.#.#.#.#.#.#.#.#.#.#.#.#.#.#.#.#.#.#.#.#.#.#.#.#.#.#.#.#.#.#.#.#.#.#.#.#.#.#.#.#.#.#.#.#.#.#.#.#.#.#.#.#.",
"#.#.#.#.#.#.#.#.#.#.#.#.#.#.#.#.#.#.#.#.#.#.#.#.#.#.#.#.#.#.#.#.#.#.#.#.#.#.#.#.#.#.#.#.#.#.#.#.#.#.#.#.#.#.#.#.#.#.#.#.#.#.#.#.",
"#.#.#.#.#.#.#.#.#.#.#.#.#.#.#.#.#.#.#.#.#.#.#.#.#.#.#.#.#.#.  #.#.#.#.#.#.#.#.#.#.#.#.#.#.#.#.#.#.#.#.#.#.#.#.#.#.#.#.#.#.#.#.#.",
"#.#.#.#.#.#.#.#.#.#.#.#.#.#.#.#.#.#.#.#.#.#.#.#.#.#.#.#.#.#.      #.#.#.#.#.#.#.#.#.#.#.#.#.#.#.#.#.#.#.#.#.#.#.#.#.#.#.#.#.#.#.",
"#.#.#.#.#.#.#.#.#.#.#.#.#.#.#.#.#.#.#.#.#.#.#.#.#.#.#.#.#.#.        #.#.#.#.#.#.#.#.#.#.#.#.#.u #.#.#.#.#.#.#.#.#.#.#.#.#.#.#.#.",
"#.#.#.#.#.#.#.#.#.#.#.#.#.#.#.#.#.#.#.#.#.#.#.#.#.#.#.#.#.#.#.        #.#.#.#.#.#.#.#.#.#.#.u u #.#.#.#.#.#.#.#.#.#.#.#.#.#.#.#.",
"#.#.#.#.#.#.#.#.#.#.#.#.#.#.#.#.#.#.+.#.#.#.#.#.#.#.#.#.#.#.#.#.      #.#.#.#.#.#.#.#.#.#.#.u u u #.#.#.#.#.#.#.#.#.#.#.#.#.#.#.",
"#.#.#.#.#.#.#.#.#.#.#.#.u #.#.#.#.#.+.#.#.#.#.#.#.#.#.  #.#.#.#.#.    #.#.#.#.#.#.#.#.#.#.#.u u u #.#.#.#.#.#.#.#.#.#.#.#.#.#.#.",
"#.#.#.#.#.#.#.#.#.#.#.#.u u #.#.#.#.#.#.#.#.#.#.#.#.#.    #.#.#.#.      #.#.#.#.#.#.#.#.#.#.u u #.#.#.#.#.#.#.#.#.#.#.#.#.#.#.#.",
"#.#.#.#.#.#.#.#.#.#.#.u u u #.#.#.#.#.#.#.#.#.#.#.#.#.    #.#.#.#.      #.#.#.#.#.#.#.#.#.#.#.#.#.#.#.#.#.#.#.#.#.#.#.#.#.#.#.#.",
"#.#.#.#.#.#.#.#.#.#.#.u u u #.#.#.+.+.#.#.#.#.#.#.#.#.    #.#.#.        #.#.#.  #.#.#.#.#.#.#.#.#.#.#.#.#.#.#.#.#.#.#.#.#.#.#.#.",
"#.#.#.#.#.#.#.#.#.#.#.u u u #.#.#.#.#.#.#.#.#.#.#.#.      #.#.            #.#.  #.#.#.#.#.#.#.#.#.#.#.#.#.#.#.#.#.#.#.#.#.#.#.#.",
"#.#.#.#.#.#.#.#.#.#.#.#.#.#.#.#.#.#.#.#.#.#.#.#.#.#.      #.#.            #.#.  #.#.#.#.#.#.#.#.#.#.#.#.#.#.#.#.#.#.#.#.#.#.#.#.",
"#.#.#.#.#.#.#.#.#.#.#.#.#.#.#.#.#.#.#.#.#.#.#.#.#.#.        #.              #.    #.#.#.#.#.#.#.#.#.#.#.#.#.#.#.#.#.#.#.#.#.#.#.",
"#.#.#.#.#.#.#.#.#.#.#.#.#.#.#.#.#.#.#.#.#.#.#.#.#.#.                        #.    #.#.#.#.#.#.#.#.#.#.#.#.#.#.#.#.#.#.#.#.#.#.#.",
"#.#.#.#.#.#.#.#.#.#.#.#.#.#.#.#.#.#.#.#.#.  #.#.#.                                #.#.#.#.#.#.#.#.#.#.#.#.#.#.#.#.#.#.#.#.#.#.#.",
"#.#.#.#.#.#.#.#.#.#.#.#.#.#.#.#.#.#.#.#.#.  #.#.#.              O 4   .           #.#.#.#.#.#.#.#.#.#.#.#.#.#.#.#.#.#.#.#.#.#.#.",
"#.#.#.#.#.#.#.#.#.#.#.#.#.#.#.#.#.#.#.#.    #.#.      . .       , 0   .           #.#.  #.+.#.#.#.#.#.#.#.#.#.#.#.#.#.#.#.#.#.#.",
"#.#.#.#.#.#.#.#.#.#.#.#.#.#.#.#.#.#.#.#.    #.#.      O 6 + .   < 0 + .           #.#.  #.+.#.+.#.#.#.#.#.#.#.#.#.#.#.#.#.#.#.#.",
"#.#.#.#.#.#.#.#.#.#.#.#.#.#.#.#.#.#.#.#.      #.      O e - .   < e ,               #.    #.#.#.#.#.#.#.#.#.#.#.#.#.#.#.#.#.#.#.",
"#.#.#.#.#.#.#.#.#.#.#.#.#.#.#.#.#.#.#.#.              O w =   & 0 e < .             #.    #.#.#.#.#.#.#.#.#.#.#.#.#.#.#.#.#.#.#.",
"#.#.#.#.#.#.#.#.#.#.#.#.#.#.#.  #.#.#.#.              4 e * . e e e w $                   #.#.#.#.#.#.#.#.#.#.#.#.#.#.#.#.#.#.#.",
"#.#.#.#.#.#.#.#.#.#.#.#.#.#.#.  #.#.#.                6 e 3 O e e e w < .                   #.#.#.#.#.#.#.#.#.#.#.#.#.#.#.#.#.#.",
"#.#.#.#.#.#.#.#.#.#.#.#.#.#.    #.#.#.                6 e e 8 w e e e e O                   #.#.#.  #.#.#.#.#.#.#.#.#.#.#.#.#.#.",
"#.#.#.#.#.#.#.#.#.#.#.#.#.#.      #.              . = w e e e e e e e e 6 + * .             #.#.    #.#.#.#.#.#.#.#.#.#.#.#.#.#.",
"#.#.#.#.#.#.#.#.#.#.#.#.#.#.                0 e   O 4 e e e e e e e e e e - e 0               #.    #.#.#.#.#.#.#.#.#.#.#.#.#.#.",
"#.#.#.#.#.#.#.#.#.#.#.#.#.                    e $ + e e e e e e e e e e w 0 e e                       #.#.#.#.#.#.u #.#.#.#.#.#.",
"#.#.#.#.#.#.#.#.#.#.#.#.#.                  , e e = e e e e e e e e e e e e e e #                     #.#.#.#.#.u u #.#.#.#.#.#.",
"#.#.#.#.#.#.#.#.#.#.#.#.                    3 e e e e e e e e e e e e e e e e e 0 . .                 #.#.#.#.#.u u u #.#.#.#.#.",
"#.#.#.#.#.#.#.#.#.#.#.#.                    4 e e e e e e e e R R e e e e e e e -                       #.#.#.#.u u #.#.#.#.#.#.",
"#.#.#.#.#.#.#.#.#.#.#.                +   O w e e e e e f m e x R e e e e e e e e     O 3               #.#.#.#.#.#.#.#.#.#.#.#.",
"#.#.#.#.#.#.#.#.#.#.#.                4   < e e e e e e k R V j R m e e e e e e w -   4 0               #.#.#.#.#.#.#.#.#.#.#.#.",
"#.#.#.#.#.#.+.#.#.#.+.            . & 9 # 0 e e e e e e k R D B R R f e e e e e e q # 9 w *             #.#.#.#.#.#.#.#.#.#.#.#.",
"#.#.#.#.#.#.#.#.#.+.              . 3 e w e e e e e e e g R T R R R b e e e e e w w e w w ,               #.#.#.#.#.#.#.#.#.#.#.",
"#.#.#.#.#.#.#.#.#.#.            e & e e w e e e e e w w B R R R R R K e e e e e e e e e 3 $ O             #.#.#.#.#.#.#.#.#.#.#.",
"#.#.#.#.#.#.#.#.+.#.            w $ e e e e e e e R w k U R R R R R R x e e e e e e e e w w &             #.#.#.#.#.#.#.#.#.#.#.",
"#.#.#.#.#.#.#.#.#.              e 0 e e e e e e e L z A R R R R R R R H R e e e e e e e e 4 $   $ .         #.#.#.#.#.#.#.#.#.#.",
"#.#.#.#.#.#.#.#.X..             e e e e e e e e e R U G R R R R R R R T R e e e e e e e e * - . e           #.#.#.#.#.#.#.#.#.#.",
"#.#.#.#.#.#.#.+.X.            O e e e e e e e e z R R R R R R R R R R R R e m j e e e w e 5 = . e $           #.#.#.#.#.#.#.#.#.",
"#.#.#.#.#.#.#.+.X.            O e e e e e e e e D R R R R R R R / R R R R Z T M e e e w w e 4 # w &           #.#.#.#.#.#.#.#.#.",
"#.#.#.#.#.#.#.#...        ;   & e e e e e e e S R R R R R R $.R @.R R R R R R I e e e e e e w w 3 &           #.#.O.#.#.#.#.#.#.",
"#.#.#.#.#.#.#.#.+.        & w q e e e e e e w U R R R R R R $.=.=.R R R R R R R m e e e e e e e < .           #.s #.#.#.#.#.#.#.",
"#.#.#.#.#.#.#.#. .        & 3 9 e e e e e e v T R R R R R ( &.=.=.] R R R R R R Z e m w e e e 4 9               s +.#.#.#.#.#.#.",
"#.#.#.#.#.#.#.#...          = w e e e e e w G R R R R =.R &.=.=.=.%.R R R R R R T e T e e e w , 5               a #.#.#.#.#.#.#.",
"#.#.#.#.#.#.#.#.#.          & 9 e e e e e e R R R R R =.R =.=.=.=.=.R ~ R R R R T R T w e w e 0 + .             p #.#.#.#.#.#.#.",
"#.#.#.#.#.#.#.#.#.            > e e e e B e T R R R R =.=.=.=.=.=.=.=.} R R R R Y R e w e e e e . .             #.#.+.#.#.#.#.#.",
"#.#.#.#.#.#.#.u #.#.          & e e e e K T T R R R R =.=.=.=.=.=.=.=.=.R R R R R T w e e e e e                 #.+.#.#.#.#.#.#.",
"#.#.#.#.#.#.#.u +.+.          1 e e e w w U R R R R R =.=.=.=.=.=.=.=.=./ R R R R Y e w e e e e               #.#.#.+.#.#.#.#.#.",
"#.#.#.#.#.#.u u u #.#.        9 w w e e e J R R R R R [ =.=.=.=.=.=.=.=.( R R R R N e e e e e w   .           #.#.#.#.#.#.#.#.#.",
"#.#.#.#.#.#.u u u #.#.        # 9 w e e e e R R R R R ) =.=.=.=.=.=.=.=.W R R R R e e e e e e < w #           #.#.#.#.#.#.#.#.#.",
"#.#.#.#.#.#.u u #.#.#.#.      . - w e e e e R R R R R ^ =.=.=.=.=.=.=.=.R R R R R e e e e e w w e           #.#.#.#.#.#.#.#.#.#.",
"#.#.#.#.#.#.#.#.#.#.#.#.    . .   w e e e e G R R R R R | =.=.=.=.=.=._ R R R R T e e e e e w w .         #.#.#.#.#.#.#.#.#.#.#.",
"#.#.#.#.#.#.#.#.#.#.#.#.#.        & w e e e v R R R R R ~ @.=.=.=.*.` R R R R R m e e e w w 9           #.#.#.#.#.#.#.#.#.#.#.#.",
"#.#.#.#.#.#.#.#.+.#.+.#.+.y     O + 9 e e e e M R R R R R W | =.} W R R R R R N e e e e w , w         #.#.#.#.#.#.#.#.#.#.#.#.#.",
"#.#.#.#.#.#.#.#.#.#.+.#.#.o.        + 3 e e e e N R R R R R R R R R R R R R N e e e e e w =           #.#.#.#.#.#.#.#.#.#.#.#.#.",
"#.#.#.#.#.#.#.#.#.+.#.#.#.+.d     . . . w e e e e Z R R R R R R R R R R R G e e e e e : ,         #.#.#.#.#.#.#.#.#.#.#.#.#.#.#.",
"#.#.#.#.#.#.#.#.#.#.#.#.#.#.O.y         # q e e e w z P T T T T T T T P h z e e e 4 :           #.#.#.#.#.#.#.#.#.#.#.#.#.#.#.#.",
"#.#.#.#.#.#.#.#.#.#.#.#.#.#.#.' E       . . - w e w w w w w e e w w e e e e e e e q           #.#.#.#.#.#.#.#.#.#.#.#.#.#.#.#.#.",
"#.#.#.#.#.#.#.#.#.#.#.#.#.#.#.#.+.p     .   O $ e e w w w w e e e e e e e e q 4 + .       #.#.#.#.u #.#.#.#.#.#.#.#.#.#.#.#.#.#.",
"#.#.#.#.#.#.#.#.#.#.#.#.#.#.#.#.#.O.t   .     $ . e 9 7 e e e e e e e 5 - < O             #.#.#.#.u u #.#.#.#.#.#.#.#.#.#.#.#.#.",
"#.#.#.#.#.#.#.#.#.#.#.#.#.#.#.#.#.#.#.i         .                       .             #.#.#.#.#.u u u #.#.#.#.#.#.#.#.#.#.#.#.#.",
"#.#.#.#.#.#.#.#.#.#.#.#.#.#.#.#.#.#.#.#.#.      .                                 #.#.#.#.#.#.#.#.u #.#.#.#.#.#.#.#.#.#.#.#.#.#.",
"#.#.#.#.#.#.#.#.#.#.#.#.#.#.#.#.#.#.#.#.#.#.#.                                #.#.#.#.#.#.#.#.#.#.#.#.#.#.#.#.#.#.#.#.#.#.#.#.#.",
"#.#.#.#.#.#.#.#.#.#.#.#.#.#.#.#.#.#.#.#.#.#.#.#.#.#.#.#.#.#.#.#.#.#.#.#.#.#.#.#.#.#.#.#.#.#.#.#.#.#.#.#.#.#.#.#.#.#.#.#.#.#.#.#."
};
