/* XPM */
static char *b7e1ff5b82b54135bc854f0874072ec7GcIjK3a3UEaTYhHL[] = {
/* columns rows colors chars-per-pixel */
"64 64 88 1 ",
"  c #F53319",
". c #F53419",
"X c #F53B19",
"o c #F53C19",
"O c #F54119",
"+ c #F54419",
"@ c #F64819",
"# c #F64D19",
"$ c #F65019",
"% c #F65419",
"& c #F65918",
"* c #F65B18",
"= c #F65D18",
"- c #F65F18",
"; c #F66218",
": c #F66618",
"> c #F66718",
", c #F66918",
"< c #F76B18",
"1 c #F76D18",
"2 c #F76E18",
"3 c #F76F18",
"4 c #F77118",
"5 c #F77318",
"6 c #F77518",
"7 c #F77618",
"8 c #F77718",
"9 c #F77B18",
"0 c #F77C18",
"q c #F77D18",
"w c #F78118",
"e c #F78518",
"r c #F78718",
"t c #F78818",
"y c #F78E18",
"u c #F79018",
"i c #F79318",
"p c #F79518",
"a c #F79718",
"s c #F79E18",
"d c #F79F18",
"f c #F7A218",
"g c #F7A318",
"h c #F7A718",
"j c #F7AA18",
"k c #F7AC18",
"l c #F7AD18",
"z c #F7B418",
"x c #F7B718",
"c c #F7B818",
"v c #F7BA18",
"b c #F7BE18",
"n c #F7BF18",
"m c #F7C118",
"M c #F7C318",
"N c #F7C718",
"B c #F7CB18",
"V c #F7CD18",
"C c #F7D018",
"Z c #F7D218",
"A c #F7D618",
"S c #F7D918",
"D c #F7DA18",
"F c #F7DB1E",
"G c #F7DB20",
"H c #F7DC22",
"J c #F8DC25",
"K c #F8DD2A",
"L c #F8DD2C",
"P c #F8DF38",
"I c #F9E249",
"U c #F9E34E",
"Y c #F9E454",
"T c #FAE559",
"R c #FAE768",
"E c #FAE970",
"W c #FBEA7C",
"Q c #FBEC86",
"! c #FBED89",
"~ c #FCF1A5",
"^ c #EFE4B0",
"/ c #FDF3B1",
"( c #FEF6C2",
") c #FEF9D2",
"_ c #FFFADC",
"` c #FFFBE1",
"' c #FFFCE6",
"] c #FFFCE7",
/* pixels */
"^^^^^^^^^^^^^^^^^^^^^^^^^^^^^^^^^^^^^^^^^^^^^^^^^^^^^^^^^^^^^^^^",
"^^^^^^^^^^^^^^^^^^^^^^^^^^^^^^^^^^^^^^^^^^^^^^^^^^^^^^^^^^^^^^^^",
"^^^^^^^^^^^^^^^^^^^^^^^^^^^^^^^^^^^^^^^^^^^^^^^^^^^^^^^^^^^^^^^^",
"^^^^^^^^^^^^^^^^^^^^^^^^^^^^^^^^^^^^^^^^^^^^^^^^^^^^^^^^^^^^^^^^",
"^^^^^^^^^^^^^^^^^^^^^^^^^^^^^^^^^^^^^^^^^^^^^^^^^^^^^^^^^^^^^^^^",
"^^^^^^^^^^^^^^^^^^^^^^^^^^^^^ ^^^^^^^^^^^^^^^^^^^^^^^^^^^^^^^^^^",
"^^^^^^^^^^^^^^^^^^^^^^^^^^^^^  ^^^^^^^^^^^^^^ ^^^^^^^^^^^^^^^^^^",
"^^^^^^^^^^^^^^^^^^^^^^^^^^^^^  ^^^^^ ^^^^^^^^ ^^^^^^^^^^^^^^^^^^",
"^^^^^^^^^^^^^^^^^^^^^^^^^^^^   ^^^^  ^^^^^^^   ^^^^^^^^^^^^^^^^^",
"^^^^^^^^^^^^^^^^^^^^^^^^^^^^   ^^^^  ^^^^^^^ D ^^^^^^^^^^^^^^^^^",
"^^^^^^^^^^^^^^^^^^^^^^^^^^^^    ^^^  ^^^^^^^^  ^^^^^^^^^^^^^^^^^",
"^^^^^^^^^^^^^^^^^^^^^^^^^^^      ^^   ^^^^^^^^^^^^^^^^^^^^^^^^^^",
"^^^^^^^^^^^^^^^^^^^^^^^^^^^      ^^   ^^^^^^^^^^^^^^^^^^^^^^^^^^",
"^^^^^^^^^^^^^^^^^^^^^^^^^^       ^    ^^^^^^^^^^^^^^^^^^^^^^^^^^",
"^^^^^^^^^^^^^^^^^ ^^^^^^^^            ^^^^^^^^^^^^^^^^^^^^^^^^^^",
"^^^^^^^^^^^^^^^^^ ^^^^^^^              ^^^^^^^^^^^^^^^^^^^^^^^^^",
"^^^^^^^^^^^^^^^^^ ^^^^^^      ;X  ..   ^^^^^^^^^^^^^^^^^^^^^^^^^",
"^^^^^^^^^^^^^^^^   ^^^^^      7*  ..    ^^^^^^^^^^^^^^^^^^^^^^^^",
"^^^^^^^^^^^^^^^^ D ^^^^      o9:  o3X   ^^ ^^^^^^^^^^^^^^^^^^^^^",
"^^^^^^^^^^^^^^^^^ ^^^^       -9;  %q.   ^  ^^^^^^^^^^^^^^^^^^^^^",
"^^^^^^^^^^^^^^^^^^^^^^      .-07@.$qo.     ^^^^^^^^^^^^^^^^^^^^^",
"^^^^^^^^^^^^^^^^^^^^^       +000q.#q,.      ^^^^^^^^^^^^^^^^^^^^",
"^^^^^^^^^^^^^^^^^^^^       .;0009X,9,.       ^^^^^^^^^^^^^^^^^^^",
"^^^^^^^^^^^^^^ ^^^^^       X0000949q2.       ^^^^^^^^^^^^^^^^^^^",
"^^^^^^^^^^^^^^  ^^^       X20000q9q99$..      ^^ ^^^^^^^^^^^^^^^",
"^^^^^^^^^^^^^^  ^^        %000009q9qq,X       ^^ ^^^^^^^^^^^^^^^",
"^^^^^^^^^^^^^    ^      .o790000q9q9qqo+#      ^  ^^^^^^^^^^^^^^",
"^^^^^^^^^^^^^           .70000009q9q9q$q$         ^^^^^^^^^^^^^^",
"^^^^^^^^^^^^^           @9000000q9q9q9q9:          ^^^^^^^^^^^^^",
"^^^^^^^^^^^^           @900000009q9q9q9q9:         ^^^^^^^^^^^^^",
"^^^^^^^^^^^^       :o  *9000000Cuqswq9q909X o      ^^^^^^^^^^^^^",
"^^^^^^^^^^^^       7: %9000000dDrjDt9q9q09; ,       ^^^^^^^^^^^^",
"^^^^^^^^^^^^      #97O7000000wNDhxDr9q9q007+4#..    ^^^^^^^^^^^^",
"^^^^^^^^^^^       -9079000000pDDDADr99q900970:..    ^^^^ ^^^^^^^",
"^^^^^^^^^^^      X,0000000000NDDDDDj9q9q000000@.     ^^^ ^^^^^^^",
"^^^^^^^^^^^     .+0000000000iDDDDDDVr9q9000000+.     ^^   ^^^^^^",
"^^^^^^^^^^      .+qq00000000bDDDDDDDCa9q0000004X     ^^ D ^^^^^^",
"^^^^^^^^^^      .*qq0000000pDDADDDDDDmq90000000.      ^  ^^^^^^^",
"^^^^^^^^^        99q0009ed0CDDDDDDDDDDuy0000000%X     ^^^^^^^^^^",
"^^^^^^^^^       o9q90000gDkDDDADDDDDDDnc00000002X     ^^^^^^^^^^",
"^^^^^^^^^       3q9q9q9qVDDDDDDK)DDDDDDDz0000004@     ^^^^^^^^^^",
"^^^^^^^^^       5qq9q9qsDDDDDDDU_DDDDDDDV90000007     ^^^^^^^^^^",
"^^^^^^^^^       9q9qq99jDDDDDDF~]IDPDDDDAp0000004.    ^^^^^^^^^^",
"^^^^^^^^^       q9q99q9ADDDDDDL]]]HDDDDDDb0000004.    ^^^^^^^^^^",
"^^^^ ^^^^       q9q9q9qCDDDDDW]]]])UDDDDDD0000004...  ^^^^^^^^^^",
"^^^^  ^^^       9q9q9qqADDDDF]]]]]]GDDDDDC0000004.    ^^^^^^^^^^",
"^^^^   ^^^      q9q9q9qCDDDDE]]]]]]IDDDDDA9000004     ^^^^^^^^^^",
"^^^^ D ^^^    ..4q9q9qqADDDDE]]]]]]]LDDDDA9000007     ^^^^^^^^^^",
"^^^^   ^^^      2900009ADDDU(]]]]]]]!DDDDC0000004    ^^^^^^^^^^^",
"^^^^^^^^^^^     ;000009ADDDP_]]]]]]_RDDDDA000w04O.   ^^^^^^^^^^^",
"^^^^^^^^^^^     .000000ADDDDT]]]]]]QDDDDDD00009#.   ^^^^^^^^^^^^",
"^^^^^^^^^^^^     *00000ADDDDK]]]]]~LDDDDDb00009 .   ^^^^^^^^^^^^",
"^^^^^^^^^^^^     O90009dDDDDDI/]]`KDDDDDDp0099# .  ^^^ ^^^^^^^^^",
"^^^^^^^^^^^^^     @00000gDDDDDK/YJDDDDDDg90999O    ^^ D ^^^^^^^^",
"^^^^^^^^^^^^^^     #00009hDDDDDDDDDDDDDh90007o    ^^^   ^^^^^^^^",
"^^^^^^^^^^^^^^^    .#00090vDDDDDDDDDDDk00999o    ^^^^^ ^^^^^^^^^",
"^^^^^^^^^^^^^^^^     $:000ydBAAAAAAAAz99009O..  ^^^^^^^^^^^^^^^^",
"^^^^^^^^^^^^^^^^^     X000009990990099990%o.   ^^^^^^^^^^^^^^^^^",
"^^^^^^^^^^^^^^^^^^^   .o:7990000000000009X    ^^^^^^^^^^^^^^^^^^",
"^^^^^^^^^^^^^^^^^^^   .  o:900000000009:+   ^^^^^^^^^^^^^^^^^^^^",
"^^^^^^^^^^^^^^^^^^^^^                       ^^^^^^^^^^^^^^^^^^^^",
"^^^^^^^^^^^^^^^^^^^^^^^                    ^^^^^^^^^^^^^^^^^^^^^",
"^^^^^^^^^^^^^^^^^^^^^^^^^                ^^^^^^^^^^^^^^^^^^^^^^^",
"^^^^^^^^^^^^^^^^^^^^^^^^^^^^^^^^^^^^^^^^^^^^^^^^^^^^^^^^^^^^^^^^"
};
