/* XPM */
static char *_271bf65ef694bbbaf50cd3135dc62faZXgQc9Ldv1QHo5nJ[] = {
/* columns rows colors chars-per-pixel */
"64 64 24 1 ",
"  c black",
". c #030201",
"X c #070502",
"o c #0D0903",
"O c #0A0A08",
"+ c #0F0E0B",
"@ c #110C06",
"# c #120D06",
"$ c #1E160A",
"% c #281A07",
"& c #432D0F",
"* c #412F16",
"= c #422F16",
"- c #423016",
"; c #573C16",
": c #FF1E1E",
"> c #805C2A",
", c #805D2A",
"< c #85602C",
"1 c #00E4FF",
"2 c #E0D6A5",
"3 c #EFE4B0",
"4 c #F2EEE8",
"5 c white",
/* pixels */
"3333333333333333333333333333333333333333333333333333333333333333",
"3333333333333333333333333333333333333333333333333333333333333333",
"33333333333333333333332                  23333333333333333333333",
"3333333333333333333O                        O3333333333333333333",
"3333333333333333+       &&&&&&&&&&&&&&&&       +3333333333333333",
"33333333333333+    &&&&&&5&&&&&&&&&&&&&&&&&&&    +33333333333333",
"3333333333333    &&&&&&&&&5&&&&&&&&&&&&&&&&5&&&    3333333333333",
"333333333333  &&&&&&&&&&&&&5&&&&&:&&&&&&&&5&&&&&&   333333333333",
"3333333333+  &&&&&&&&&&&&&&&&&&&:&&&&&&&&5&&&&&&&&&  +3333333333",
"333333333+  &&&&&&&&&&&&&&&&&&&:&&&&&&&&&&&&&&&&&&&&  +333333333",
"333333333  &&&&&:&&&&&&&&&&&&&&&&&&&&&&&&&&&&&&&&&&&&  +33333333",
"33333333   &&&&:&&&&&&&&&&&&&&&&&&&&&&&&&&&&&:&&&&&&&&  33333333",
"3333333O  &&&&:&&&&&&&&1&&&&&&&&&&&&&&&&&&&&&&:&&&1&&&  O3333333",
"3333333  &&&&&&&&&&&&&1&&&&&&&&&&&&&&&&5&&&&&&&:&&&1&&&  3333333",
"333333O &&&&&&&&&&&&&1&&&&&&&&&&&&&&&&&&5&&&&&&&&&&&1&&  O333333",
"333333  &&&&5&&&&&&&&&&&&&&&&&&&&&&&&&&&&5&&&&&&&&&&&&&&  333333",
"333333  &&&&&5&&&&&&&&&&&&&&&&&&&&&&1&&&&&&&&&&&&&&&&&&&  333333",
"333333 o&&&&&&5&&&&&&&&&&&&&:&&&&&&1&&&&&&&&&&&&&&&&&&&&  333333",
"333333 o&&&&&&&&&&&&&&&&&&&:&&&&&&1&&&&&&&&&&&&&&&&&&&&&  333333",
"333333 X&&&&&&&&&&&&&&&&&&:&&&&&&&&&&&&&&&&&&&&&&&&&&5&&  333333",
"333333 X&&&&&&&&&&&1&&&&&&&&&&&&&&&&&&&&&&&&&&&&&&&&5&&&  333333",
"333333 X&&&&5&&&&&&&1&&&&&&&&&&&&&&&&&&&&&&:&&&&&&&5&&&&  333333",
"333333 X&&&5&&&&&&&&&1&&&&&&&&&5&&&&&&&&&&&&:&&&&&&&&&&&  333333",
"333333 X&&5&&&&&&&&&&&&&&&&&&&5&&&&&&&&&&&&&&:&&&&&&&&&&  333333",
"333333  &&&&&&&&&&&%%%&&&&&&&5&&&&&&&&&1&&&&&&&&&&&&&&&&  333333",
"333333  &&&&&&&&&&%<<%&&%%%%&&&&&&&&&&1&&&&&&&&&&&&&&&&&  333333",
"333333  %&&&&&&&&%<<<<%%%<<%%&&&&&&&&1&&&&&&&&%%%&&&&&&&  333333",
"333333  <%&&&&&%%<<<<<<<<<<<%%&&&%%%&&&&&&&&&&%<%&&&&&&&  333333",
"333333  <<%%%%%<<<<<<<<<<<<<<%%%%<<%%&&&&&&&&%<<%%&&&&&&  333333",
"333333  <<<<<<<<<<<<<<<<<<<<<<<<<<<<%&&&&&&&&%<<<%%&&&&&X 333333",
"333333  <<<<<<<<<<<<<<<<<<<<<<<<<<<<%%&&&&&&&%<<<<%%&&%%  333333",
"333333  <<<<<<<<<<<<<<<<<<<<<<<<<<<<<%&&&&&&%%<<<<<%%&%;  333333",
"333333  <<<<<<<<<<<<<<<<<<<<<<<<<<<<<<%&&&&%<<<<<<<<%%%;  333333",
"333333  <<<<<<<<<<<<<<<<<<<<<<<<<<<<<<%&&&&%<<<<<<<<<<;;  333333",
"333333  <<<<<<<<<<<<<<<<<<<<<<<<<<<<<<%%&&&%<<<<<<<<<<;;  333333",
"333333  <<<<,-@.#=,<<<<<<<<<<<<<<<<<<<<%&&&%<<<<<<<<<<;;  333333",
"333333  <<<,$     $,<<<<<<<<<<<<<<<<<<<%%&%%<<<<<<<<<<;;  333333",
"333333  <<<*    44 =<<<<<<<<<<<<<<<<<<<<%&%<<<<<<<<<<<;;  333333",
"333333  <<<@     4 #<<<<<<<<<<<<<<<<<<<<%%%<<<<<<<<<<<;;  333333",
"333333  <<<.        <<<<<<<<<<<<<<<<<<<<<<<<<<<<<<<<<<;;  333333",
"333333  <<<#.      #,<<<<<<<<<<<<<<<<<<<<%%%<<<<<<<<<<;;  333333",
"333333  <<<-       =<<<<<<<<<<<<<<<<<<<<<%&%<<<<<<<<<<;;  333333",
"333333  <<,,%     %,<<<<<<<<<<<<<<<<<<<<<%%%<<<<<<<<<<;;  333333",
"333333  <<<<>*@.#-,,<<<<<<<<<<<<<<<<<<<<<<<<<<<<<<<<<<;;  333333",
"333333  <<<<<<<<<<<<<<<<<<<<<<<<<<<<<<<<<<<<<<<<<<<<<<;;  333333",
"333333  <<<<<<<<<<<<<<<<<<<<<<<<<<<<<<<<<<<<<<<<<<<<<<;;  333333",
"333333  <<<<<<<<<<<<<<<<<<<<<<<<<<<<<<<<<<<<<<<<<<<<<<;;  333333",
"333333  <<<<<<<<<<<<<<<<<<<<<<<<<<<<<<<<<<<<<<<<<<<<<<;;  333333",
"333333  <<<<<<<<<<<<<<<<<<<<<<<<<<<<<<<<<<<<<<<<<<<<<<;;  333333",
"333333  <<<<<<<<<<<<<<<<<<<<<<<<<<<<<<<<<<<<<<<<<<<<<<;;  333333",
"333333  <<<<<<<<<<<<<<<<<<<<<<<<<<<<<<<<<<<<<<<<<<<<<<;;  333333",
"333333  <<<<<<<<<<<<<<<<<<<<<<<<<<<<<<<<<<<<<<<<<<<<<<;;  333333",
"333333  <<<<<<<<<<<<<<<<<<<<<<<<<<<<<<<<<<<<<<<<<<<<<<;;  333333",
"333333  <<<<<<<<<<<<<<<<<<<<<<<<<<<<<<<<<<<<<<<<<<<<<<;;  333333",
"333333  <<<<<<<<<<<<<<<<<<<<<<<<<<<<<<<<<<<<<<<<<<<<<<;;  333333",
"333333  <<<<<<<<<<<<<<<<<<<<<<<<<<<<<<<<<<<<<<<<<<<<<<;;  333333",
"333333  <<<<<<<<<<<<<<<<<<<<<<<<<<<<<<<<<<<<<<<<<<<<<<;;  333333",
"333333  ;;;;;;;;;;;;;;;;;;;;;;;;;;;;;;;;;;;;;;;;;;;;;;;;  333333",
"333333  ;;;;;;;;;;;;;;;;;;;;;;;;;;;;;;;;;;;;;;;;;;;;;;;;  333333",
"333333                                                    333333",
"333333                                                    333333",
"3333333333333333333333333333333333333333333333333333333333333333",
"3333333333333333333333333333333333333333333333333333333333333333",
"3333333333333333333333333333333333333333333333333333333333333333"
};
