/* XPM */
static char *_5c5d6c27e594585e68d9b0695ee2215iSgyu48hhzFxpxbk[] = {
/* columns rows colors chars-per-pixel */
"64 64 5 1 ",
"  c black",
". c #400000",
"X c #E69A0D",
"o c #F9AC0D",
"O c #EFE4B0",
/* pixels */
"OOOOOooooooOOOOOOOOOOoooooOOOOOOOOOOOOoooooOOOOOOOOXXXXXXXXOOOOO",
"OOOOooooooooOOOOOOOoooooooooOOOOOOOOoooooooooOOOOOXooooooXXXXOOO",
"OOooooooooooooOOOOoooooooooooOOOOOOoooooooooooOOOXooooooooXXXXOO",
"OOooooooooooooOOOoooooooooooooOOOOoooooooooooooOOXoooooooooXXXXO",
"OoooooooooooooooooooooooooooooooooooooooooooooooooooooooooooXXXX",
"OoooooooooooooooooooooooooooooooooooooooooooooooooooooooooooXXXX",
"oooooooooooooooooooooooooooooooooooooooooooooooooooooooooooooXXX",
"oooooooooooooooooooooooooooooooooooooooooooooooooooooooooooooXXX",
"oooooooooooooooooooooooooooooooooooooooooooooooooooooooooooooXXX",
"oooooooooooooooooooooooooooooooooooooooooooooooooooooooooooooXXX",
"OooooooooooooooooooooooooooooooooooooooooooooooooooooooooooooXXX",
"OoooooooooooooooooooooooooooooooooooooooooooooooooooooooooooXXXX",
"OOooooooooooooooooooooooooooooooooooooooooooooooooooooooooooXXXX",
"OOoooooooooooooooooooooooooooooooooooooooooooooooooooooooooXXXXO",
"OOOOooooooooooooooooooooooooooooooooooooooooooooooooooooooXXXXOO",
"OOOOooooooooooooooo  .ooooooooooooooo  .ooooooooooooooooooXXXOOO",
"OOOOOooooooooooooo    .ooooooooooooo    .ooooooooooooooooXXXXOOO",
"OOOOoooooooooooooo    .ooooooooooooo    .oooooooooooooooXXXXXXOO",
"OOoooooooooooooooo.  ..ooooooooooooo.  ..oooooooooooooooXXXXXXOO",
"OOooooooooooooooooo...ooooooooooooooo...oooooooooooooooooXXXXXXO",
"OoooooooooooooooooooooooooooooooooooooooooooooooooooooooooXXXXXO",
"OooooooooooooooooooooooooooooooooooooooooooooooooooooooooooXXXXX",
"ooooooooooooooooooooooooooooooooooooooooooooooooooooooooooooXXXX",
"ooooooooooooooooooooooooooooooooooooooooooooooooooooooooooooXXXX",
"ooooooooooooooooooooooooooooooooooooooooooooooooooooooooooooXXXX",
"oooooooooooooooooooooooooooooooooooooooooooooooooooooooooooXXXXX",
"OooooooooooooooooooooooooooooooooooooooooooooooooooooooooooXXXXX",
"OooooooooooooooooooooooooooooooooooooooooooooooooooooooooooXXXXO",
"OOooooooooooooooooooooooooooooooooooooooooooooooooooooooooXXXXXO",
"OOooooooooooo  .oooooooooooo  .oooooooooooo  .oooooooooooXXXXXXO",
"OOOOoooooooo    .oooooooooo    .oooooooooo    .ooooooooooXXXXXOO",
"OOOOoooooooo    .oooooooooo    .oooooooooo    .oooooooooXXXXXOOO",
"OOOOoooooooo.  ..oooooooooo.  ..oooooooooo.  ..ooooooooXXXXXXOOO",
"OOOOOoooooooo...oooooooooooo...oooooooooooo...oooooooooXXXXXOOOO",
"OOOOoooooooooooooooooooooooooooooooooooooooooooooooooooXXXXXXOOO",
"OOooooooooooooooooooooooooooooooooooooooooooooooooooooooXXXXXXOO",
"OOoooooooooooooooooooooooooooooooooooooooooooooooooooooooXXXXXXO",
"OoooooooooooooooooooooooooooooooooooooooooooooooooooooooooXXXXXO",
"OooooooooooooooooooooooooooooooooooooooooooooooooooooooooooXXXXX",
"oooooooooooooooooooooooooooooooooooooooooooooooooooooooooooXXXXX",
"ooooooooooooooooooooooooooooooooooooooooooooooooooooooooooooXXXX",
"ooooooooooooooooooooooooooooooooooooooooooooooooooooooooooooXXXX",
"oooooooooooooooooooooooooooooooooooooooooooooooooooooooooooXXXXX",
"Ooooooooooooooooooo  .ooooooooooooooo  .oooooooooooooooooooXXXXO",
"Oooooooooooooooooo    .ooooooooooooo    .oooooooooooooooooXXXXXO",
"OOoooooooooooooooo    .ooooooooooooo    .ooooooooooooooooXXXXXXO",
"OOoooooooooooooooo.  ..ooooooooooooo.  ..ooooooooooooooooXXXXXOO",
"OOOOooooooooooooooo...ooooooooooooooo...ooooooooooooooooXXXXXOOO",
"OOOoooooooooooooooooooooooooooooooooooooooooooooooooooooXXXXXOOO",
"OOOOXoooooooooooooooooooooooooooooooooooooooooooooooooooXXXXOOOO",
"OOOXooooooooooooooooooooooooooooooooooooooooooooooooooooXXXXXOOO",
"OOXooooooooooooooooooooooooooooooooooooooooooooooooooooooXXXXXXO",
"OXoooooooooooooooooooooooooooooooooooooooooooooooooooooooXXXXXXO",
"OXooooooooooooooooooooooooooooooooooooooooooooooooooooooooXXXXXX",
"XXoooooooooooooooooooooooooooooooooooooooooooooooooooooooooXXXXX",
"XoooooooooooooooooooooooooooooooooooooooooooooooooooooooooooXXXX",
"XooooooooooooooooooooooooooooooooooooooooooooooooooooooooooXXXXX",
"XXooooooooooooXXoooooooooooooooooooooooooooooooXXXXooooooooXXXXX",
"XXooooooooooXXXXXooooooooooooXXXXXoooooooooooXXXXXXXooooooXXXXXX",
"OXXoooooooXXXXXXXXoooooooooXXXXXXXXXooooooooXXXXXXXXXXoooXXXXXXO",
"OOXXXoooXXXXXXXXXXXXooooXXXXXXXXXXXXXooooooXXXXXXXXXXXXoXXXXXXXO",
"OOXXXXXXXXXXXXOXXXXXXXXXXXXXXXXXXXXXXXoXXXXXXXXOOOXXXXXXXXXXXXOO",
"OOOXXXXXXXXXOOOOOXXXXXXXXXXXXOOOOOXXXXXXXXXXXXOOOOOOXXXXXXXXXOOO",
"OOOOOXXXXXOOOOOOOOXXXXXXXXXXOOOOOOOXXXXXXXXXXOOOOOOOOXXXXXXXOOOO"
};
